ply
format ascii 1.0
comment Created by Blender 2.82 (sub 7) - www.blender.org, source file: ''
element vertex 56
property float x
property float y
property float z
property float nx
property float ny
property float nz
element face 36
property list uchar uint vertex_indices
end_header
-25.000000 -25.000000 25.000000 -1.000000 0.000000 0.000000
-25.000000 25.000000 -25.000000 -1.000000 0.000000 0.000000
-25.000000 -25.000000 -25.000000 -1.000000 0.000000 0.000000
-25.000000 25.000000 25.000000 0.000000 1.000000 -0.000000
25.000000 25.000000 -25.000000 0.000000 1.000000 -0.000000
-25.000000 25.000000 -25.000000 0.000000 1.000000 -0.000000
25.000000 25.000000 25.000000 1.000000 0.000000 -0.000000
25.000000 -25.000000 -25.000000 1.000000 0.000000 -0.000000
25.000000 25.000000 -25.000000 1.000000 0.000000 -0.000000
25.000000 -25.000000 25.000000 0.000000 -1.000000 0.000000
-25.000000 -25.000000 -25.000000 0.000000 -1.000000 0.000000
25.000000 -25.000000 -25.000000 0.000000 -1.000000 0.000000
25.000000 25.000000 -25.000000 0.000000 0.000000 -1.000000
-25.000000 -25.000000 -25.000000 0.000000 0.000000 -1.000000
-25.000000 25.000000 -25.000000 0.000000 0.000000 -1.000000
-22.500000 -22.500000 25.000000 0.000000 0.000000 0.000000
22.500000 -22.500000 25.000000 0.000000 0.000000 0.000000
-22.500000 -22.500000 25.000000 0.000000 0.000000 0.000000
-22.500000 22.500000 25.000000 0.000000 -0.000000 1.000000
-25.000000 -25.000000 25.000000 0.000000 -0.000000 1.000000
-22.500000 -22.500000 25.000000 0.000000 -0.000000 1.000000
22.500000 22.500000 25.000000 -0.000000 -0.000000 1.000000
-25.000000 25.000000 25.000000 -0.000000 -0.000000 1.000000
22.500000 -22.500000 25.000000 -0.000000 0.000000 1.000000
25.000000 25.000000 25.000000 -0.000000 0.000000 1.000000
25.000000 -25.000000 25.000000 0.000000 0.000000 1.000000
22.500000 -22.500000 25.000000 -0.000000 1.000000 0.000000
-22.500000 -22.500000 -22.500000 -0.000000 1.000000 0.000000
-22.500000 -22.500000 25.000000 -0.000000 1.000000 0.000000
22.500000 22.500000 25.000000 0.000000 0.000000 0.000000
-22.500000 22.500000 25.000000 0.000000 0.000000 0.000000
22.500000 22.500000 25.000000 0.000000 0.000000 0.000000
22.500000 -22.500000 25.000000 0.000000 0.000000 0.000000
-22.500000 22.500000 25.000000 0.000000 0.000000 0.000000
-22.500000 22.500000 -22.500000 0.000000 0.000000 1.000000
22.500000 -22.500000 -22.500000 0.000000 0.000000 1.000000
22.500000 22.500000 -22.500000 0.000000 0.000000 1.000000
-22.500000 22.500000 25.000000 -0.000000 -1.000000 -0.000000
22.500000 22.500000 -22.500000 -0.000000 -1.000000 -0.000000
22.500000 22.500000 25.000000 -0.000000 -1.000000 -0.000000
22.500000 22.500000 25.000000 -1.000000 0.000000 0.000000
22.500000 -22.500000 -22.500000 -1.000000 0.000000 0.000000
22.500000 -22.500000 25.000000 -1.000000 0.000000 0.000000
-22.500000 -22.500000 25.000000 1.000000 0.000000 0.000000
-22.500000 22.500000 -22.500000 1.000000 0.000000 0.000000
-22.500000 22.500000 25.000000 1.000000 0.000000 0.000000
-25.000000 25.000000 25.000000 -1.000000 0.000000 0.000000
25.000000 25.000000 25.000000 0.000000 1.000000 -0.000000
25.000000 -25.000000 25.000000 1.000000 0.000000 0.000000
-25.000000 -25.000000 25.000000 0.000000 -1.000000 0.000000
25.000000 -25.000000 -25.000000 0.000000 0.000000 -1.000000
22.500000 -22.500000 -22.500000 0.000000 1.000000 0.000000
-22.500000 -22.500000 -22.500000 0.000000 -0.000000 1.000000
-22.500000 22.500000 -22.500000 0.000000 -1.000000 0.000000
22.500000 22.500000 -22.500000 -1.000000 0.000000 0.000000
-22.500000 -22.500000 -22.500000 1.000000 0.000000 -0.000000
3 0 1 2
3 3 4 5
3 6 7 8
3 9 10 11
3 12 13 14
3 15 16 17
3 18 19 20
3 21 22 18
3 23 24 21
3 20 25 23
3 26 27 28
3 29 30 31
3 32 31 16
3 33 17 30
3 34 35 36
3 37 38 39
3 40 41 42
3 43 44 45
3 0 46 1
3 3 47 4
3 6 48 7
3 9 49 10
3 12 50 13
3 15 32 16
3 18 22 19
3 21 24 22
3 23 25 24
3 20 19 25
3 26 51 27
3 29 33 30
3 32 29 31
3 33 15 17
3 34 52 35
3 37 53 38
3 40 54 41
3 43 55 44
